<svg xmlns="http://www.w3.org/2000/svg" viewBox="0 0 512 512" fill="none">
  <defs>
    <linearGradient id="bg" x1="0" y1="0" x2="512" y2="512" gradientUnits="userSpaceOnUse">
      <stop offset="0%" stop-color="#8B6DC0"/>
      <stop offset="100%" stop-color="#4F378B"/>
    </linearGradient>
    <linearGradient id="arrow" x1="256" y1="290" x2="256" y2="400" gradientUnits="userSpaceOnUse">
      <stop offset="0%" stop-color="#EADDFF"/>
      <stop offset="100%" stop-color="#CCC2DC"/>
    </linearGradient>
  </defs>
  <rect width="512" height="512" rx="120" fill="url(#bg)"/>
  <path d="M394 260a58 58 0 0 0-58-58c-3.6 0-7.1.33-10.5.95A80 80 0 0 0 176 148 80 80 0 0 0 96 228c0 1.86.1 3.72.2 5.57A53.3 53.3 0 0 0 106.7 342H394z" fill="white" opacity="0.95"/>
  <path d="M256 310v95" stroke="url(#arrow)" stroke-width="22" stroke-linecap="round"/>
  <path d="M213 367l43 43 43-43" stroke="url(#arrow)" stroke-width="22" stroke-linecap="round" stroke-linejoin="round"/>
</svg>
